<svg xmlns="http://www.w3.org/2000/svg" viewBox="0 0 226 226" enable-background="new 0 0 226 80" width="226" height="226" fill="#fff">
    <path d="M42.9 113.8v14.5c0 3.7 1.8 5.5 5.5 5.5h1.6c3.7 0 5.5-1.8 5.5-5.5v-7.1h8.5v6.8c0 9.3-4.7 14.1-14.1 14.1h-1.8c-9.3 0-14.1-4.7-14.1-13v-35.6c0-10.4 4.7-15.2 14.1-15.2h1.8c9.3 0 14.1 4.7 14.1 14.1v21.3h-21.1zm0-8.5h12.5v-13.2c0-3.7-1.8-5.5-5.5-5.5h-1.4c-3.7 0-5.5 1.8-5.5 5.5v13.2z" />
    <path d="M69.8 79.1h8.8v4c2.1-2.2 5.7-4.7 10.7-4.7 7.5 0 11.2 5 11.2 12.3v39c0 7.4-3.7 12.3-11.2 12.3-5.1 0-8.6-2.4-10.7-4.5v20.1h-8.8v-78.5zm8.8 51.4c2.4 2.1 5.2 3.2 8.1 3.2 3.2 0 5.1-1.5 5.1-5.1v-36.8c0-3.6-1.8-5.1-5.1-5.1-2.9 0-5.7 1.2-8.1 3.2v40.6z" />
    <path d="M105.8 119.7c0-7.7 2.5-10.8 9.2-13.1l11.8-4v-10.5c0-3.7-1.8-5.7-5.5-5.7h-1.4c-3.7 0-5.5 2-5.5 5.7v8.8h-8.5v-8.5c0-9.3 4.7-14.1 14.1-14.1h1.7c9.3 0 14.1 4.7 14.1 14.1v48.9h-8.8v-3.9c-2.4 2.3-5.7 4.6-10.7 4.6-7 0-10.3-4-10.3-11v-11.3zm21 11.1v-20.5l-8 3c-3.2 1.3-4.3 2.9-4.3 6.5v9.5c0 3 1.5 4.5 4.3 4.5 2.7-.1 5.1-1 8-3z" />
    <path d="M171 141.3h-8.8v-50.1c0-3.1-1.5-4.5-4.2-4.5-2.4 0-5 .9-8.1 3.1v51.5h-8.8v-62.2h8.8v4c2.5-2.4 5.9-4.7 10.7-4.7 4.5 0 7.5 1.8 9.1 5.1 3.1-2.7 6.8-5.1 11.9-5.1 6.8 0 10.3 4.2 10.3 11v52h-8.8v-50.2c0-3.1-1.5-4.5-4.2-4.5-2.4 0-5 .9-8.1 3.1v51.5z" />
    <path d="M22.9 84.8v11.5l-14.7 14 14.7 13.8v11.7l-22.5-21.2v-8.4l22.5-21.4z" />
    <path d="M225.6 106.2v8.4l-22.5 21.2v-11.7l14.7-13.8-14.7-14.1v-11.4l22.5 21.4z" />
</svg>