<?xml version="1.0" encoding="utf-8"?>
<!-- Generator: Adobe Illustrator 21.1.0, SVG Export Plug-In . SVG Version: 6.00 Build 0)  -->
<svg version="1.1" id="Слой_1" xmlns="http://www.w3.org/2000/svg" xmlns:xlink="http://www.w3.org/1999/xlink" x="0px" y="0px"
	 width="226.8px" height="226.8px" viewBox="0 0 226.8 226.8" style="enable-background:new 0 0 226.8 226.8;" xml:space="preserve"
	>
<style type="text/css">
	.st0{fill:#FFFFFF;}
	.st1{fill:#66B9BB;}
	.st2{fill:#434244;}
</style>
<g>
	<path class="st0" d="M204.3,226.8H22.5C10.1,226.8,0,216.7,0,204.3V22.5C0,10.1,10.1,0,22.5,0h181.7c12.4,0,22.5,10.1,22.5,22.5
		v181.7C226.8,216.7,216.7,226.8,204.3,226.8z"/>
	<g>
		<g>
			<g>
				<path class="st1" d="M42.7,160.8c0-0.1-0.1-0.3-0.1-0.3l0,0l-2.3-1.9l0,0c-0.1-0.1-0.2-0.1-0.3-0.1s-0.3,0.1-0.4,0.2l0,0
					c-0.3,0.3-0.5,0.7-0.7,0.9c-0.2,0.3-0.5,0.5-0.7,0.8c-0.2,0.2-0.4,0.3-0.6,0.4c-0.3,0.1-0.8,0.2-1.3-0.1c-0.3-0.2-0.6-0.4-1-0.7
					c-0.3-0.3-0.6-0.5-0.9-0.7c-0.3-0.2-0.5-0.4-0.9-0.5c-0.3-0.1-0.6-0.3-0.9-0.3c-0.7-0.2-1.5-0.2-2.5,0.1c-0.5,0.2-1,0.5-1.5,0.8
					s-1,0.8-1.4,1.3c-0.4,0.4-0.8,0.8-1.1,1.3l0,0L26,162l0,0c-0.1,0.1-0.1,0.3-0.1,0.3c0,0.1,0.1,0.3,0.2,0.4l0,0l2.5,1.6l0,0
					c0.1,0.1,0.2,0.1,0.3,0.1c0.2,0,0.3-0.1,0.4-0.2l0,0c0.4-0.7,0.8-1.2,1.2-1.5c0.4-0.3,0.8-0.5,1-0.5c0.2,0,0.5,0.1,0.7,0.1
					s0.4,0.2,0.6,0.3c0.2,0.1,0.4,0.3,0.6,0.5s0.5,0.4,0.7,0.5c0.3,0.3,0.8,0.5,1.3,0.8c0.5,0.2,1.1,0.3,1.6,0.3
					c0.5,0,1.1-0.1,1.6-0.3c0.5-0.2,1-0.5,1.5-0.9c0.5-0.3,1-0.8,1.3-1.3c0.3-0.4,0.7-0.8,1-1.3l0,0C42.6,161,42.7,160.9,42.7,160.8
					z"/>
				<path class="st1" d="M52.8,158.3h-3.6c-0.3,0-0.6,0.1-0.8,0.3l-8,21.9c-0.1,0.3,0.1,0.7,0.5,0.7h3.5c0.3,0,0.6-0.1,0.8-0.3
					l8-21.9C53.4,158.6,53.2,158.3,52.8,158.3z"/>
			</g>
			<g>
				<circle class="st2" cx="53.6" cy="178.7" r="2.5"/>
				<path class="st2" d="M74.1,172.1c-1-0.9-2.5-1.6-4.5-2.2c-0.6-0.1-1.2-0.3-1.7-0.5c-0.5-0.1-0.9-0.3-1.2-0.5
					c-0.3-0.1-0.5-0.3-0.6-0.5c-0.1-0.1-0.2-0.4-0.2-0.6c0-0.2,0.1-0.4,0.1-0.5c0.1-0.1,0.3-0.3,0.5-0.4c0.2-0.1,0.5-0.2,0.8-0.2
					c0.7-0.1,1.4-0.1,2.2,0.1c0.4,0.1,0.8,0.3,1.2,0.4c0.3,0.1,0.7,0.3,1,0.6c0.3,0.2,0.5,0.5,0.8,0.7c0,0,0.1,0.2,0.3,0.4l0,0
					c0.1,0.1,0.2,0.2,0.4,0.2c0.1,0,0.3-0.1,0.4-0.2l0,0l1.6-2.4l0,0c0.1-0.1,0.1-0.1,0.1-0.2l0,0l0,0c0-0.1,0-0.2-0.1-0.3l0,0l0,0
					l0,0c-0.9-1-1.9-1.6-2.9-2.1c-1.1-0.5-2.3-0.7-3.6-0.7c-1,0-1.9,0.1-2.7,0.5c-0.8,0.3-1.6,0.7-2.2,1.2c-0.6,0.5-1.1,1-1.4,1.6
					c-0.3,0.6-0.5,1.3-0.5,1.9s0.1,1.2,0.3,1.7c0.2,0.5,0.5,1,0.9,1.4c0.3,0.4,0.8,0.8,1.4,1.1c0.5,0.3,1.1,0.6,1.8,0.8
					c0.3,0.1,0.7,0.2,1,0.3c0.3,0.1,0.6,0.2,1,0.3c0.6,0.1,1.1,0.3,1.5,0.5s0.7,0.3,1,0.5c0.2,0.2,0.4,0.3,0.5,0.5
					c0.1,0.2,0.1,0.3,0.1,0.6c0,0.5-0.2,0.8-0.7,1c-0.5,0.3-1.2,0.4-2.1,0.4c-0.4,0-0.8-0.1-1.3-0.2c-0.5-0.1-0.9-0.3-1.3-0.5
					s-0.8-0.5-1.2-0.8c-0.3-0.3-0.8-0.7-1.2-1.2l0,0c-0.1-0.1-0.3-0.2-0.4-0.2c-0.2,0-0.3,0.1-0.4,0.3l0,0l-1.6,3l0,0
					c-0.1,0.1-0.1,0.1-0.1,0.3c0,0.1,0.1,0.3,0.1,0.3l0,0c1,1,2.1,1.6,3.3,2.1c1.2,0.5,2.5,0.7,4,0.7c1.1,0,2.1-0.1,3-0.5
					c0.9-0.3,1.7-0.8,2.3-1.3c0.6-0.5,1.2-1.2,1.5-1.9c0.3-0.7,0.5-1.4,0.5-2.3C75.6,174.1,75,173,74.1,172.1z"/>
				<path class="st2" d="M93.6,168.3c-0.4-1.2-0.9-2.2-1.6-2.9s-1.4-1.4-2.3-1.8c-0.9-0.4-1.9-0.6-2.9-0.6c-0.3,0-0.7,0.1-1.1,0.1
					c-0.4,0.1-0.8,0.2-1.1,0.4c-0.3,0.2-0.7,0.4-1.1,0.7c-0.2,0.1-0.3,0.3-0.5,0.5v-0.8l0,0l0,0l0,0c0-0.3-0.2-0.5-0.5-0.5l0,0h-3.4
					l0,0c-0.3,0-0.5,0.2-0.5,0.5l0,0l0,0l0,0l0,0V188c0,0.3,0.2,0.5,0.5,0.5h3.5c0.3,0,0.5-0.2,0.5-0.5v-8.2
					c0.4,0.3,0.9,0.7,1.4,0.9c1.7,0.8,3.4,0.5,5-0.1c0.9-0.3,1.7-1,2.3-1.6c0.7-0.8,1.2-1.6,1.6-2.7c0.4-1.1,0.6-2.3,0.6-3.8
					C94.2,170.8,93.9,169.5,93.6,168.3z M89.4,174.7c-0.2,0.7-0.5,1.2-0.8,1.6c-0.3,0.4-0.7,0.7-1.1,0.9c-0.9,0.4-1.8,0.3-2.5,0
					c-0.3-0.2-0.7-0.5-1-1c-0.3-0.4-0.5-1-0.6-1.7c-0.1-0.8-0.2-1.6-0.2-2.6c0-0.7,0.1-1.4,0.1-2c0.1-0.6,0.2-1.2,0.5-1.6
					c0.2-0.5,0.5-0.8,0.9-1.1c0.3-0.3,0.9-0.4,1.4-0.4c1.2,0,2,0.5,2.6,1.4c0.6,1,1,2.3,1,4.1C89.6,173.2,89.6,174,89.4,174.7z"/>
				<path class="st2" d="M111.4,167c-0.3-0.9-0.8-1.7-1.4-2.3c-0.6-0.6-1.4-1-2.3-1.3c-1-0.3-2.1-0.4-3.4-0.4c-2.3,0.1-4.5,1-6,2.7
					l0,0l0,0l0,0c-0.1,0.1-0.1,0.2-0.1,0.3l0,0c0,0.1,0.1,0.2,0.1,0.3l0,0l1.7,2.2l0,0c0.1,0.1,0.2,0.2,0.4,0.2l0,0
					c0.1,0,0.3-0.1,0.3-0.1l0,0c0.6-0.6,1.9-1.8,3.8-1.9c1-0.1,1.7,0.3,2.2,0.8c0.4,0.5,0.7,1.3,0.7,2.4h-1.9
					c-1.4,0-2.7,0.1-3.7,0.4c-1.1,0.3-2,0.8-2.7,1.3c-0.8,0.5-1.3,1.2-1.7,2c-0.4,0.8-0.6,1.6-0.6,2.5c0,0.7,0.1,1.4,0.3,2
					c0.3,0.6,0.6,1.2,1.1,1.6c0.5,0.5,1.1,0.8,1.9,1.1c0.8,0.3,1.6,0.4,2.7,0.4c0.9,0,1.9-0.2,2.7-0.5c0.8-0.3,1.4-0.7,2-1.2v0.8
					c0,0.3,0.2,0.5,0.5,0.5l0,0h3.4c0.3,0,0.5-0.2,0.5-0.5v-10.1C111.9,169,111.8,167.9,111.4,167z M107.4,175.2
					c-0.1,0.2-0.3,0.4-0.5,0.7c-0.2,0.3-0.5,0.5-0.8,0.8c-0.3,0.3-0.7,0.5-1.1,0.7c-0.4,0.2-0.9,0.3-1.4,0.3c-0.3,0-0.6-0.1-0.9-0.1
					c-0.3-0.1-0.5-0.3-0.8-0.4c-0.2-0.1-0.3-0.3-0.5-0.5c-0.1-0.2-0.2-0.4-0.2-0.7c0-0.3,0.1-0.6,0.2-0.9c0.1-0.3,0.3-0.5,0.8-0.8
					c0.3-0.3,0.9-0.4,1.5-0.6c0.5-0.1,1.3-0.2,2.1-0.2c0.1,0,0.3,0,0.4,0h1.2c0,0.4,0,0.8-0.1,1.1
					C107.5,174.7,107.5,175,107.4,175.2z"/>
				<path class="st2" d="M130.4,177.7L130.4,177.7l-2-2.3l0,0c-0.1-0.1-0.2-0.2-0.3-0.2c-0.1,0-0.3,0.1-0.3,0.1l0,0
					c-0.3,0.3-0.5,0.5-0.8,0.8c-0.3,0.3-0.7,0.5-1,0.7c-0.3,0.1-0.7,0.3-1,0.3c-1,0.2-1.9,0.1-2.7-0.3c-0.5-0.3-1-0.7-1.3-1.2
					c-0.3-0.5-0.7-1-0.9-1.7c-0.2-0.6-0.3-1.2-0.3-2c0-0.7,0.1-1.4,0.3-2c0.2-0.6,0.5-1.2,0.9-1.7c0.4-0.5,0.8-0.9,1.3-1.2
					c0.8-0.4,1.7-0.5,2.7-0.3c0.3,0.1,0.7,0.2,1,0.3c0.3,0.2,0.7,0.4,1,0.7c0.3,0.2,0.5,0.5,0.8,0.8l0,0c0.1,0.1,0.2,0.1,0.3,0.1
					c0.1,0,0.3-0.1,0.3-0.2l0,0l2-2.3l0,0c0.1-0.1,0.1-0.2,0.1-0.3c0-0.1-0.1-0.3-0.1-0.3l0,0c-1-1-1.9-1.7-3-2.1
					c-1.2-0.5-2.4-0.8-3.7-0.8c-1.2,0-2.4,0.2-3.5,0.7c-1,0.5-2,1.1-2.7,1.9c-0.8,0.8-1.4,1.8-1.8,2.9c-0.4,1.1-0.6,2.3-0.6,3.6v0.1
					v0.1c0,1.3,0.2,2.5,0.6,3.6c0.4,1.1,1,2.1,1.8,2.9c0.8,0.8,1.6,1.4,2.7,1.9c1,0.5,2.2,0.7,3.5,0.7c1.3,0,2.5-0.3,3.7-0.8
					c1.1-0.5,2.1-1.2,3-2.1l0,0c0.1-0.1,0.1-0.2,0.1-0.3C130.5,177.8,130.4,177.8,130.4,177.7z"/>
				<path class="st2" d="M148.1,167.8c-0.4-1-0.9-1.9-1.6-2.7c-0.7-0.7-1.4-1.2-2.3-1.6s-1.9-0.5-2.9-0.5c-1.2,0-2.3,0.2-3.3,0.6
					c-1,0.4-1.9,1-2.6,1.9s-1.3,1.8-1.7,2.9c-0.4,1.2-0.6,2.4-0.6,3.8c0,1.4,0.2,2.7,0.6,3.8c0.4,1.1,1,2.1,1.8,2.8s1.7,1.4,2.7,1.8
					c1,0.4,2.2,0.6,3.4,0.6c2.5,0,4.7-1,6.4-2.9l0,0c0.1-0.1,0.1-0.2,0.1-0.3c0-0.1-0.1-0.3-0.1-0.3l0,0l-1.9-1.9l0,0
					c-0.1-0.1-0.2-0.1-0.3-0.1c-0.1,0-0.3,0.1-0.3,0.1l0,0c-0.1,0.1-0.3,0.3-0.5,0.5c-0.3,0.3-0.7,0.5-1.1,0.8
					c-1.2,0.5-2.4,0.7-3.6,0.3c-0.5-0.1-0.9-0.4-1.2-0.8c-0.3-0.3-0.7-0.8-1-1.4c-0.2-0.5-0.4-1.1-0.5-1.8h10.6l0,0l0,0
					c0.3,0,0.5-0.2,0.5-0.4l0,0l0.1-0.6c0-0.3,0.1-0.6,0.1-0.9C148.7,170.1,148.5,168.8,148.1,167.8z M137.8,169.9
					c0.1-0.5,0.2-0.9,0.3-1.3c0.2-0.5,0.4-0.8,0.7-1.2c0.3-0.3,0.6-0.5,1-0.8c0.8-0.3,1.8-0.3,2.5,0c0.4,0.2,0.8,0.5,1,0.8
					c0.3,0.3,0.5,0.8,0.6,1.2c0.1,0.4,0.2,0.8,0.2,1.2H137.8z"/>
			</g>
			<g>
				<path class="st1" d="M200.8,158.8c0-0.3-0.2-0.5-0.5-0.5l0,0l0,0h-12.8l0,0l0,0c-0.3,0-0.5,0.2-0.5,0.5l0,0l0,0v2.9
					c0,0.3,0.2,0.5,0.5,0.5l0,0h7.9l-6.7,18c-0.1,0.3,0.1,0.7,0.5,0.7h3.5c0.3,0,0.6-0.1,0.8-0.3l7.3-19.9L200.8,158.8L200.8,158.8
					L200.8,158.8z"/>
				<path class="st1" d="M183.8,163.6c-0.3-1.1-0.9-2.1-1.5-2.9c-0.6-0.8-1.4-1.4-2.3-1.9c-0.9-0.5-1.9-0.7-3-0.7
					c-0.1,0-0.1,0-0.1,0s-0.1,0-0.1,0c-1.1,0-2.1,0.2-3,0.7c-0.9,0.5-1.7,1.1-2.3,1.9c-0.7,0.8-1.2,1.8-1.5,2.9
					c-0.3,1.1-0.5,2.3-0.5,3.6l0,0v4.9c0,1.3,0.2,2.5,0.5,3.6c0.3,1.1,0.9,2.1,1.5,2.9c0.6,0.8,1.4,1.4,2.3,1.9
					c0.9,0.5,1.9,0.7,3,0.7c0.1,0,0.1,0,0.1,0c0.1,0,0.1,0,0.1,0c1.1,0,2.1-0.2,3-0.7c0.9-0.5,1.7-1.1,2.3-1.9
					c0.7-0.8,1.2-1.8,1.5-2.9c0.3-1.1,0.5-2.3,0.5-3.6v-4.9C184.4,166,184.2,164.7,183.8,163.6z M173.1,167.3c0-0.7,0.1-1.4,0.3-2
					c0.2-0.6,0.4-1.2,0.8-1.7c0.3-0.5,0.7-0.9,1.2-1.2c0.3-0.2,0.7-0.3,1.1-0.4l0,0c0.1,0,0.3,0,0.3,0c0.1,0,0.3,0,0.3,0l0,0
					c0.2,0,0.3,0.1,0.5,0.1l-4.3,11.6c-0.1-0.5-0.2-1.2-0.2-1.8V167.3z M180.4,172.1c0,0.7-0.1,1.4-0.3,2c-0.2,0.6-0.4,1.2-0.8,1.7
					c-0.3,0.5-0.7,0.9-1.2,1.2c-0.3,0.2-0.7,0.3-1.1,0.4l0,0c-0.1,0-0.3,0-0.3,0c-0.1,0-0.3,0-0.3,0l0,0c-0.2,0-0.4-0.1-0.6-0.1
					l4.4-11.7c0.1,0.6,0.3,1.2,0.3,1.9L180.4,172.1L180.4,172.1z"/>
				<path class="st1" d="M166.1,174.3c0,1-0.1,1.9-0.5,2.8c-0.3,0.8-0.8,1.6-1.5,2.2c-0.7,0.6-1.4,1-2.4,1.4s-2.1,0.5-3.2,0.5
					c-1.2,0-2.4-0.2-3.4-0.7c-1-0.4-1.9-1.1-2.7-2.1l-0.1-0.1l0,0c-0.1-0.1-0.1-0.2-0.1-0.3c0-0.1,0.1-0.2,0.1-0.3l0,0l1.9-2.3l0,0
					c0.1-0.1,0.2-0.1,0.3-0.1c0.1,0,0.2,0,0.3,0.1l0,0l0,0c0.2,0.2,0.5,0.4,0.8,0.7c1.2,0.9,2,1.1,2.9,1.2c0.4,0,0.8-0.1,1.2-0.2
					c0.3-0.1,0.7-0.3,1-0.6c0.3-0.3,0.5-0.6,0.7-1.1c0.1-0.4,0.3-0.9,0.3-1.4c0-0.5-0.1-0.9-0.3-1.3c-0.2-0.4-0.5-0.7-0.8-1
					c-0.3-0.3-0.8-0.5-1.2-0.6c-0.5-0.1-1-0.2-1.6-0.2c-0.1,0-1.4,0.1-1.6,0.1l0,0l0,0c-0.3,0-0.5-0.2-0.5-0.5V168l0,0l0,0
					c0-0.3,0.2-0.5,0.5-0.5l0,0c0.9,0,1.6-0.1,2.3-0.2c0.7-0.1,1.2-0.3,1.6-0.6c0.4-0.3,0.7-0.6,0.8-1c0.1-0.4,0.3-0.8,0.3-1.4
					c0-0.3-0.1-0.6-0.2-1c-0.1-0.3-0.3-0.5-0.5-0.8s-0.5-0.4-0.8-0.5c-0.7-0.3-1.7-0.3-2.7,0.2c-0.5,0.3-1,0.7-1.6,1.4l0,0
					c-0.1,0.1-0.2,0.1-0.3,0.1c-0.1,0-0.3-0.1-0.4-0.2l0,0l-1.9-2.1l0,0c-0.1-0.1-0.1-0.2-0.1-0.3c0-0.1,0.1-0.2,0.1-0.3
					c0-0.1,0.1-0.1,0.1-0.2c0.7-0.8,1.5-1.5,2.4-1.9c1-0.5,2.1-0.7,3.4-0.7c1,0,1.9,0.1,2.7,0.5c0.8,0.3,1.5,0.8,2.1,1.3
					c0.6,0.5,1.1,1.2,1.4,1.9c0.3,0.8,0.5,1.6,0.5,2.5c0,0.5-0.1,1.1-0.3,1.6c-0.2,0.5-0.4,1-0.8,1.4c-0.3,0.4-0.7,0.8-1,1
					c-0.3,0.2-0.5,0.3-0.8,0.5c0.3,0.1,0.6,0.3,0.9,0.5c0.4,0.3,0.8,0.8,1.2,1.2c0.3,0.5,0.6,1,0.8,1.6
					C165.9,173,166.1,173.6,166.1,174.3z"/>
			</g>
		</g>
		<path class="st1" d="M200.8,65c0-1.6-0.7-3-1.8-4l0,0L175,41.9l0,0c-0.9-0.8-2.1-1.2-3.4-1.2c-1.8,0-3.4,1-4.3,2.3
			c-0.1-0.1,0.1-0.1,0,0c-2.6,3.7-4.9,6.9-6.9,9.5c-2.4,3.2-4.8,5.7-7.1,7.5c-2.2,1.9-4.3,3.3-6.2,4.2c-3.8,1.8-8.2,2.1-13.5-1.5
			c-3.2-2.1-6.4-4.5-9.9-6.9c-3.3-2.5-6.4-4.9-9.3-7c-3-2.2-6-4-9.1-5.5c-3-1.4-6.2-2.6-9.5-3.6c-7.2-2-15.9-2.2-26.1,1.8
			c-5.3,2.1-10.7,5-16,8.8c-5.3,3.7-10.4,8.2-15.4,13.3c-4.1,4.2-7.7,8.8-11.1,13.8l0,0c-0.2,0.3-0.5,0.5-0.6,0.8
			c-0.1,0.1-0.1,0.1-0.1,0.1C26.2,79,25.9,80,25.9,81c0,1.8,0.9,3.3,2.3,4.3l0,0l25.6,17.4l0,0c0.9,0.6,2,1.1,3.2,1.1
			c1.8,0,3.4-1,4.4-2.5c0,0-0.1,0.1,0,0c4.4-7.1,8.5-12.2,12.4-15.4c4-3.4,7.7-5.1,11-5.1c2.4,0,4.7,0.4,6.8,1.3
			c2.3,1,4.5,2.2,6.6,3.6c2.1,1.4,4.5,3.2,6.8,5.1c2.4,2.1,4.9,4,7.4,5.7c3.6,2.9,8.2,5.5,13.4,7.7c5.3,2.3,11.2,3.4,17.6,3.4
			c5.6,0,11.2-1.2,16.7-3.4c5.5-2.2,10.8-5.3,15.8-9.2c5-3.9,9.7-8.4,14-13.4c3.6-4.3,7.1-8.8,10.2-13.6c0.1-0.1,0,0,0,0
			C200.4,67.2,200.8,66.1,200.8,65z"/>
	</g>
</g>
</svg>
