<svg xmlns="http://www.w3.org/2000/svg" version="1" viewBox="0 0 99 99" fill="#143269">
  <path d="M12 22.5V33h21V12H12v10.5zm18 0V30H15V15h15v7.5z"/>
  <path d="M18 22.5V27h9v-9h-9v4.5zM39 13.5c0 1 1 1.5 3 1.5s3 .5 3 1.5-1 1.5-3 1.5-3 .5-3 1.5c0 .8-.7 1.5-1.5 1.5-1 0-1.5 1-1.5 3s.5 3 1.5 3c.8 0 1.5.7 1.5 1.5s-.7 1.5-1.5 1.5-1.5.7-1.5 1.5.7 1.5 1.5 1.5c1 0 1.5 1 1.5 3s.5 3 1.5 3c.8 0 1.5.7 1.5 1.5s.7 1.5 1.5 1.5c1 0 1.5-1 1.5-3s-.5-3-1.5-3c-.8 0-1.5-.7-1.5-1.5s-.7-1.5-1.5-1.5-1.5-.7-1.5-1.5.7-1.5 1.5-1.5 1.5.7 1.5 1.5.7 1.5 1.5 1.5c1.1 0 1.5-1.2 1.5-4.5s.4-4.5 1.5-4.5c1 0 1.5-1 1.5-3 0-2.9.2-3 4.5-3s4.5-.1 4.5-3c0-2-.5-3-1.5-3-.8 0-1.5.7-1.5 1.5 0 1-1 1.5-3 1.5s-3-.5-3-1.5c0-1.1-1.2-1.5-4.5-1.5s-4.5.4-4.5 1.5zM42 24c0 2-.5 3-1.5 3S39 26 39 24s.5-3 1.5-3 1.5 1 1.5 3zM66 22.5V33h21V12H66v10.5zm18 0V30H69V15h15v7.5z"/>
  <path d="M72 22.5V27h9v-9h-9v4.5zM60 18c0 2-.5 3-1.5 3-.8 0-1.5.7-1.5 1.5 0 1 1 1.5 3 1.5 2.9 0 3-.2 3-4.5 0-3.3-.4-4.5-1.5-4.5-1 0-1.5 1-1.5 3zM51 22.5c0 .8-.7 1.5-1.5 1.5s-1.5.7-1.5 1.5c0 1 1 1.5 3 1.5 2.7 0 3-.3 3-3 0-2-.5-3-1.5-3-.8 0-1.5.7-1.5 1.5zM48 34.5V39h4.5c3.3 0 4.5.4 4.5 1.5 0 .8-.7 1.5-1.5 1.5s-1.5.7-1.5 1.5.7 1.5 1.5 1.5 1.5.7 1.5 1.5.7 1.5 1.5 1.5 1.5.7 1.5 1.5.7 1.5 1.5 1.5c1 0 1.5-1 1.5-3s.5-3 1.5-3 1.5 1 1.5 3 .5 3 1.5 3c.8 0 1.5.7 1.5 1.5s-.7 1.5-1.5 1.5-1.5-.7-1.5-1.5-.7-1.5-1.5-1.5-1.5.7-1.5 1.5-.7 1.5-1.5 1.5-1.5-.7-1.5-1.5c0-1-1-1.5-3-1.5s-3 .5-3 1.5c0 .8-.7 1.5-1.5 1.5s-1.5-.7-1.5-1.5-.7-1.5-1.5-1.5-1.5.7-1.5 1.5.7 1.5 1.5 1.5 1.5.7 1.5 1.5-.7 1.5-1.5 1.5c-1 0-1.5 1-1.5 3s.5 3 1.5 3c.8 0 1.5.7 1.5 1.5s-.7 1.5-1.5 1.5-1.5.7-1.5 1.5-.7 1.5-1.5 1.5c-1 0-1.5-1-1.5-3s-.5-3-1.5-3-1.5 1-1.5 3-.5 3-1.5 3-1.5-1-1.5-3-.5-3-1.5-3c-1.1 0-1.5 1.2-1.5 4.5s.4 4.5 1.5 4.5c1 0 1.5 1 1.5 3s.5 3 1.5 3c.8 0 1.5-.7 1.5-1.5 0-1 1-1.5 3-1.5s3 .5 3 1.5c0 .8.7 1.5 1.5 1.5s1.5.7 1.5 1.5-.7 1.5-1.5 1.5-1.5.7-1.5 1.5-.7 1.5-1.5 1.5-1.5.7-1.5 1.5c0 1.1 1.2 1.5 4.5 1.5 4.3 0 4.5-.1 4.5-3 0-2 .5-3 1.5-3 .8 0 1.5.7 1.5 1.5s.7 1.5 1.5 1.5 1.5.7 1.5 1.5c0 1 1 1.5 3 1.5 2.7 0 3-.3 3-3s-.3-3-3-3c-2 0-3-.5-3-1.5 0-.8-.7-1.5-1.5-1.5s-1.5-.7-1.5-1.5c0-1.1-1.2-1.5-4.5-1.5-4.3 0-4.5-.1-4.5-3 0-2 .5-3 1.5-3 .8 0 1.5-.7 1.5-1.5s.7-1.5 1.5-1.5 1.5-.7 1.5-1.5.7-1.5 1.5-1.5 1.5.7 1.5 1.5.7 1.5 1.5 1.5 1.5.7 1.5 1.5c0 1-1 1.5-3 1.5s-3 .5-3 1.5c0 .8.7 1.5 1.5 1.5s1.5.7 1.5 1.5c0 1.1 1.2 1.5 4.5 1.5s4.5.4 4.5 1.5c0 .8.7 1.5 1.5 1.5 1 0 1.5 1 1.5 3 0 2.7.3 3 3 3 2 0 3 .5 3 1.5 0 .8.7 1.5 1.5 1.5s1.5-.7 1.5-1.5-.7-1.5-1.5-1.5-1.5-.7-1.5-1.5-.7-1.5-1.5-1.5-1.5-.7-1.5-1.5-.7-1.5-1.5-1.5-1.5-.7-1.5-1.5c0-1 1-1.5 3-1.5s3 .5 3 1.5c0 .8.7 1.5 1.5 1.5s1.5.7 1.5 1.5.7 1.5 1.5 1.5 1.5-.7 1.5-1.5-.7-1.5-1.5-1.5-1.5-.7-1.5-1.5.7-1.5 1.5-1.5 1.5.7 1.5 1.5.7 1.5 1.5 1.5c1.1 0 1.5 1.2 1.5 4.5s.4 4.5 1.5 4.5c1.2 0 1.5-1.5 1.5-7.5V72h-6c-4.7 0-6-.3-6-1.5 0-.8.7-1.5 1.5-1.5s1.5-.7 1.5-1.5.7-1.5 1.5-1.5c1.1 0 1.5-1.2 1.5-4.5s-.4-4.5-1.5-4.5c-.8 0-1.5-.7-1.5-1.5 0-1-1-1.5-3-1.5s-3-.5-3-1.5c0-.8-.7-1.5-1.5-1.5-1 0-1.5-1-1.5-3s-.5-3-1.5-3c-.8 0-1.5-.7-1.5-1.5 0-1-1-1.5-3-1.5s-3-.5-3-1.5c0-.8-.7-1.5-1.5-1.5-1.1 0-1.5-1.2-1.5-4.5s-.4-4.5-1.5-4.5c-1 0-1.5 1-1.5 3s-.5 3-1.5 3-1.5-1-1.5-3-.5-3-1.5-3c-1.1 0-1.5 1.2-1.5 4.5zm9 21c0 1.2 1.3 1.5 6 1.5s6 .3 6 1.5-1.3 1.5-6 1.5-6-.3-6-1.5c0-.8-.7-1.5-1.5-1.5s-1.5.7-1.5 1.5-.7 1.5-1.5 1.5-1.5-.7-1.5-1.5.7-1.5 1.5-1.5 1.5-.7 1.5-1.5.7-1.5 1.5-1.5 1.5.7 1.5 1.5zm21 6c0 3.3-.4 4.5-1.5 4.5S75 64.8 75 61.5s.4-4.5 1.5-4.5 1.5 1.2 1.5 4.5zm-6 6V72h-9v-9h9v4.5z"/>
  <path d="M66 67.5c0 .8.7 1.5 1.5 1.5s1.5-.7 1.5-1.5-.7-1.5-1.5-1.5-1.5.7-1.5 1.5zM60 33c0 2 .5 3 1.5 3s1.5-1 1.5-3-.5-3-1.5-3-1.5 1-1.5 3zM12 37.5c0 1 1 1.5 3 1.5s3 .5 3 1.5-1 1.5-3 1.5c-2.7 0-3 .3-3 3 0 2 .5 3 1.5 3 .8 0 1.5-.7 1.5-1.5 0-1.1 1.2-1.5 4.5-1.5 4.3 0 4.5.1 4.5 3 0 2 .5 3 1.5 3 .8 0 1.5-.7 1.5-1.5s.7-1.5 1.5-1.5 1.5-.7 1.5-1.5-.7-1.5-1.5-1.5-1.5-.7-1.5-1.5.7-1.5 1.5-1.5 1.5-.7 1.5-1.5.7-1.5 1.5-1.5 1.5.7 1.5 1.5c0 1 1 1.5 3 1.5s3 .5 3 1.5c0 .8.7 1.5 1.5 1.5s1.5.7 1.5 1.5c0 1-1 1.5-3 1.5s-3-.5-3-1.5c0-.8-.7-1.5-1.5-1.5s-1.5.7-1.5 1.5-.7 1.5-1.5 1.5-1.5.7-1.5 1.5.7 1.5 1.5 1.5 1.5.7 1.5 1.5-.7 1.5-1.5 1.5-1.5.7-1.5 1.5.7 1.5 1.5 1.5 1.5.7 1.5 1.5c0 1.2-1.3 1.5-6 1.5s-6 .3-6 1.5 1.3 1.5 6 1.5 6-.3 6-1.5c0-.8.7-1.5 1.5-1.5s1.5-.7 1.5-1.5-.7-1.5-1.5-1.5-1.5-.7-1.5-1.5c0-1 1-1.5 3-1.5s3-.5 3-1.5c0-.8.7-1.5 1.5-1.5s1.5.7 1.5 1.5-.7 1.5-1.5 1.5c-1 0-1.5 1-1.5 3s.5 3 1.5 3 1.5-1 1.5-3 .5-3 1.5-3 1.5-1 1.5-3 .5-3 1.5-3c.8 0 1.5-.7 1.5-1.5s.7-1.5 1.5-1.5 1.5-.7 1.5-1.5c0-1-1-1.5-3-1.5s-3 .5-3 1.5c0 .8-.7 1.5-1.5 1.5s-1.5-.7-1.5-1.5-.7-1.5-1.5-1.5-1.5-.7-1.5-1.5-.7-1.5-1.5-1.5-1.5-.7-1.5-1.5c0-1.1-1.2-1.5-4.5-1.5s-4.5.4-4.5 1.5-1.2 1.5-4.5 1.5-4.5-.4-4.5-1.5c0-1-1-1.5-3-1.5s-3 .5-3 1.5zM72 37.5c0 .8-.7 1.5-1.5 1.5s-1.5.7-1.5 1.5.7 1.5 1.5 1.5 1.5.7 1.5 1.5.7 1.5 1.5 1.5 1.5.7 1.5 1.5.7 1.5 1.5 1.5c1 0 1.5-1 1.5-3s.5-3 1.5-3c.8 0 1.5.7 1.5 1.5s.7 1.5 1.5 1.5c1 0 1.5 1 1.5 3s-.5 3-1.5 3-1.5 1-1.5 3 .5 3 1.5 3c.8 0 1.5.7 1.5 1.5s.7 1.5 1.5 1.5c1 0 1.5-1 1.5-3s-.5-3-1.5-3c-.8 0-1.5-.7-1.5-1.5s.7-1.5 1.5-1.5c1.1 0 1.5-1.2 1.5-4.5s-.4-4.5-1.5-4.5c-.8 0-1.5-.7-1.5-1.5 0-1-1-1.5-3-1.5s-3-.5-3-1.5-1-1.5-3-1.5-3 .5-3 1.5z"/>
  <path d="M30 43.5c0 .8.7 1.5 1.5 1.5s1.5-.7 1.5-1.5-.7-1.5-1.5-1.5-1.5.7-1.5 1.5zM12 57c0 4.7.3 6 1.5 6s1.5-1.3 1.5-6-.3-6-1.5-6-1.5 1.3-1.5 6zM18 52.5c0 .8.7 1.5 1.5 1.5s1.5.7 1.5 1.5c0 1 1 1.5 3 1.5s3-.5 3-1.5-1-1.5-3-1.5-3-.5-3-1.5c0-.8-.7-1.5-1.5-1.5s-1.5.7-1.5 1.5zM12 76.5V87h21V66H12v10.5zm18 0V84H15V69h15v7.5z"/>
  <path d="M18 76.5V81h9v-9h-9v4.5zM84 67.5c0 .8.7 1.5 1.5 1.5s1.5-.7 1.5-1.5-.7-1.5-1.5-1.5-1.5.7-1.5 1.5zM36 84c0 2.7.3 3 3 3 2 0 3-.5 3-1.5 0-.8-.7-1.5-1.5-1.5s-1.5-.7-1.5-1.5-.7-1.5-1.5-1.5c-1 0-1.5 1-1.5 3z"/>
</svg>
