<svg xmlns="http://www.w3.org/2000/svg" viewBox="0 0 75 75"><title>qr</title><path fill="#143269" d="M0 10.5v10.5h21v-21h-21zm18 0v7.5h-15v-15h15zm-12 0v4.5h9v-9h-9zm18-9c0 1.1 1.2 1.5 4.5 1.5 4.3 0 4.5.1 4.5 3q0 3-1.5 3a1.54 1.54 0 0 1-1.5-1.5 1.5 1.5 0 0 0-3 0 1.54 1.54 0 0 0 1.5 1.5q1.5 0 1.5 3t-1.5 3a1.54 1.54 0 0 0-1.5 1.5 1.54 1.54 0 0 1-1.5 1.5q-1.5 0-1.5 3t1.5 3a1.54 1.54 0 0 1 1.5 1.5 1.54 1.54 0 0 0 1.5 1.5 1.5 1.5 0 0 1 0 3 1.54 1.54 0 0 0-1.5 1.5q0 1.5-3 1.5t-3-1.5a1.54 1.54 0 0 0-1.5-1.5 1.5 1.5 0 0 1 0-3 1.5 1.5 0 1 0-1.5-1.5 1.5 1.5 0 0 1-3 0q0-1.5-3-1.5t-3 1.5q0 1.5 3 1.5t3 1.5a1.54 1.54 0 0 0 1.5 1.5 1.54 1.54 0 0 1 1.5 1.5 1.54 1.54 0 0 0 1.5 1.5 1.5 1.5 0 1 1-1.5 1.5 1.54 1.54 0 0 0-1.5-1.5 1.54 1.54 0 0 1-1.5-1.5q0-1.5-3-1.5t-3 1.5a1.54 1.54 0 0 0 1.5 1.5 1.54 1.54 0 0 1 1.5 1.5q0 1.5 3 1.5t3 1.5 3 1.5 3-1.5a1.54 1.54 0 0 1 1.5-1.5 1.54 1.54 0 0 0 1.5-1.5 1.54 1.54 0 0 1 1.5-1.5 1.54 1.54 0 0 0 1.5-1.5 1.54 1.54 0 0 1 1.5-1.5 1.5 1.5 0 0 0 0-3q-1.5 0-1.5-3t1.5-3a1.5 1.5 0 0 0 0-3 1.5 1.5 0 1 1 1.5-1.5 1.5 1.5 0 0 0 3 0 1.5 1.5 0 0 1 3 0 1.54 1.54 0 0 0 1.5 1.5 1.5 1.5 0 1 1-1.5 1.5 1.54 1.54 0 0 0-1.5-1.5c-1.1 0-1.5 1.2-1.5 4.5s.4 4.5 1.5 4.5a1.54 1.54 0 0 0 1.5-1.5 1.5 1.5 0 0 1 3 0 1.54 1.54 0 0 0 1.5 1.5c1.1 0 1.5 1.2 1.5 4.5s.4 4.5 1.5 4.5a1.5 1.5 0 0 1 0 3q-1.5 0-1.5 3t-1.5 3a1.54 1.54 0 0 0-1.5 1.5 1.5 1.5 0 0 1-3 0 1.5 1.5 0 0 0-3 0 1.54 1.54 0 0 1-1.5 1.5 1.54 1.54 0 0 0-1.5 1.5 1.54 1.54 0 0 1-1.5 1.5q-1.5 0-1.5 3t1.5 3a1.54 1.54 0 0 0 1.5-1.5 1.54 1.54 0 0 1 1.5-1.5 1.54 1.54 0 0 0 1.5-1.5 1.5 1.5 0 1 1 1.5 1.5 1.5 1.5 0 0 0 0 3q1.5 0 1.5 3t-1.5 3a1.5 1.5 0 0 0 0 3 1.5 1.5 0 1 1-1.5 1.5 1.54 1.54 0 0 0-1.5-1.5 1.5 1.5 0 0 1 0-3q1.5 0 1.5-3t-1.5-3a1.54 1.54 0 0 0-1.5 1.5 1.54 1.54 0 0 1-1.5 1.5q-1.5 0-1.5 3t-1.5 3a1.54 1.54 0 0 0-1.5 1.5 1.54 1.54 0 0 1-1.5 1.5q-1.5 0-1.5 3t1.5 3a1.54 1.54 0 0 0 1.5-1.5 1.54 1.54 0 0 1 1.5-1.5 1.54 1.54 0 0 0 1.5-1.5 1.54 1.54 0 0 1 1.5-1.5q1.5 0 1.5 3c0 2.9.2 3 4.5 3h4.5v-4.5c0-3.3.4-4.5 1.5-4.5a1.5 1.5 0 0 0 0-3q-1.5 0-1.5-3t-1.5-3a1.5 1.5 0 0 1 0-3q1.5 0 1.5-3t1.5-3q1.5 0 1.5 3t1.5 3a1.5 1.5 0 0 1 0 3q-1.5 0-1.5 3c0 2.9.2 3 4.5 3 3.3 0 4.5.4 4.5 1.5a1.54 1.54 0 0 1-1.5 1.5 1.5 1.5 0 1 0 1.5 1.5 1.54 1.54 0 0 1 1.5-1.5 1.54 1.54 0 0 0 1.5-1.5q0-1.5 3-1.5t3 1.5a1.54 1.54 0 0 0 1.5 1.5q1.5 0 1.5-3t-1.5-3a1.5 1.5 0 0 1 0-3 1.5 1.5 0 0 0 0-3c-1.1 0-1.5-1.2-1.5-4.5s.4-4.5 1.5-4.5 1.5 1 1.5 3 .5 3 1.5 3a1.54 1.54 0 0 1 1.5 1.5 1.54 1.54 0 0 0 1.5 1.5 1.54 1.54 0 0 1 1.5 1.5 1.5 1.5 0 1 0 1.5-1.5q-1.5 0-1.5-3t-1.5-3a1.5 1.5 0 1 1 1.5-1.5 1.54 1.54 0 0 0 1.5 1.5q1.5 0 1.5-3t-1.5-3a1.5 1.5 0 0 1 0-3c1.1 0 1.5-1.2 1.5-4.5s-.4-4.5-1.5-4.5a1.5 1.5 0 0 1 0-3 1.5 1.5 0 1 0-1.5-1.5c0 1.2-1.5 1.5-7.5 1.5s-7.5-.3-7.5-1.5a1.5 1.5 0 1 0-1.5 1.5 1.54 1.54 0 0 1 1.5 1.5q0 1.5 3 1.5c2.7 0 3 .3 3 3 0 2.9.2 3 4.5 3 3.3 0 4.5.4 4.5 1.5a1.54 1.54 0 0 1-1.5 1.5 1.54 1.54 0 0 0-1.5 1.5q0 1.5-3 1.5t-3-1.5a1.54 1.54 0 0 0-1.5-1.5q-1.5 0-1.5 3t-1.5 3a1.54 1.54 0 0 0-1.5 1.5c0 1.2-1.3 1.5-6 1.5s-6-.3-6-1.5a1.54 1.54 0 0 1 1.5-1.5q1.5 0 1.5-3t1.5-3a1.5 1.5 0 0 0 0-3 1.5 1.5 0 1 1 1.5-1.5 1.54 1.54 0 0 0 1.5 1.5 1.54 1.54 0 0 1 1.5 1.5 1.54 1.54 0 0 0 1.5 1.5q1.5 0 1.5-3c0-2.7-.3-3-3-3q-3 0-3-1.5a1.54 1.54 0 0 0-1.5-1.5 1.5 1.5 0 0 1 0-3c1.2 0 1.5-1.3 1.5-6s-.3-6-1.5-6-1.5 1.3-1.5 6-.3 6-1.5 6-1.5-1.5-1.5-7.5-.3-7.5-1.5-7.5a1.5 1.5 0 0 1 0-3c1.1 0 1.5-1.2 1.5-4.5s-.4-4.5-1.5-4.5a1.54 1.54 0 0 0-1.5 1.5q0 1.5-3 1.5t-3-1.5c0-1.2-1.3-1.5-6-1.5s-6 .3-6 1.5zm15 7.5q0 3-1.5 3t-1.5-3q0-3 1.5-3t1.5 3zm-9 10.5a1.5 1.5 0 1 1-1.5-1.5 1.54 1.54 0 0 1 1.5 1.5zm42 12q0 1.5-3 1.5t-3-1.5q0-1.5 3-1.5t3 1.5zm-12 24v4.5h-9v-9h9zm-6 0a1.5 1.5 0 1 0 1.5-1.5 1.54 1.54 0 0 0-1.5 1.5zm0-45v10.5h21v-21h-21zm18 0v7.5h-15v-15h15zm-12 0v4.5h9v-9h-9zm-12-6a1.5 1.5 0 0 0 3 0 1.5 1.5 0 0 0-3 0zm-3 6q0 1.5 3 1.5t3-1.5q0-1.5-3-1.5t-3 1.5zm-45 15q0 1.5 3 1.5t3-1.5q0-1.5-3-1.5t-3 1.5zm36 6a1.5 1.5 0 1 0 1.5-1.5 1.54 1.54 0 0 0-1.5 1.5zm-33 3a1.54 1.54 0 0 1-1.5 1.5c-1.2 0-1.5 1.5-1.5 7.5s.3 7.5 1.5 7.5q1.5 0 1.5-3t1.5-3a1.54 1.54 0 0 1 1.5 1.5q0 1.5 3 1.5t3 1.5c0 1.1 1.2 1.5 4.5 1.5s4.5-.4 4.5-1.5a1.54 1.54 0 0 0-1.5-1.5 1.5 1.5 0 1 1 1.5-1.5q0 1.5 3 1.5t3 1.5a1.54 1.54 0 0 1-1.5 1.5 1.5 1.5 0 1 0 1.5 1.5 1.54 1.54 0 0 1 1.5-1.5 1.54 1.54 0 0 0 1.5-1.5 1.54 1.54 0 0 1 1.5-1.5 1.5 1.5 0 0 0 0-3 1.54 1.54 0 0 1-1.5-1.5 1.5 1.5 0 0 0-3 0 1.5 1.5 0 1 1-1.5-1.5 1.54 1.54 0 0 0 1.5-1.5 1.5 1.5 0 0 1 3 0 1.54 1.54 0 0 0 1.5 1.5q1.5 0 1.5-3c0-2.7-.3-3-3-3q-3 0-3 1.5a1.54 1.54 0 0 1-1.5 1.5 1.54 1.54 0 0 0-1.5 1.5c0 1.2-1.3 1.5-6 1.5s-6 .3-6 1.5q0 1.5-3 1.5t-3-1.5a1.54 1.54 0 0 0-1.5-1.5 1.5 1.5 0 0 1 0-3 1.54 1.54 0 0 1 1.5 1.5 1.54 1.54 0 0 0 1.5 1.5q1.5 0 1.5-3t-1.5-3a1.54 1.54 0 0 1-1.5-1.5 1.54 1.54 0 0 0-1.5-1.5 1.54 1.54 0 0 0-1.5 1.5zm12 12a1.5 1.5 0 1 1-1.5-1.5 1.54 1.54 0 0 1 1.5 1.5zm21-6q0 1.5 3 1.5t3-1.5q0-1.5-3-1.5t-3 1.5zm15 1.5c0 2.7.3 3 3 3q3 0 3-1.5a1.54 1.54 0 0 0-1.5-1.5 1.54 1.54 0 0 1-1.5-1.5 1.54 1.54 0 0 0-1.5-1.5q-1.5 0-1.5 3zm-51 22.5v10.5h21v-21h-21zm18 0v7.5h-15v-15h15zm-12 0v4.5h9v-9h-9zm18-1.5q0 3 1.5 3t1.5-3q0-3-1.5-3t-1.5 3zm45 0q0 3-1.5 3t-1.5 3-1.5 3-1.5-3c0-2.7-.3-3-3-3s-3 .3-3 3 .3 3 3 3q3 0 3 1.5a1.5 1.5 0 0 0 3 0q0-1.5 3-1.5t3 1.5a1.54 1.54 0 0 0 1.5 1.5c1.2 0 1.5-1.5 1.5-7.5v-7.5h-3c-2.7 0-3 .3-3 3zm-24 6q0 3 1.5 3a1.54 1.54 0 0 1 1.5 1.5q0 1.5 3 1.5t3-1.5q0-1.5-3-1.5c-2.7 0-3-.3-3-3q0-3-1.5-3t-1.5 3z"/></svg>